<svg width="36" height="48" viewBox="0 0 36 48" fill="none" xmlns="http://www.w3.org/2000/svg">
<path d="M16.8845 23.9739C16.4181 22.4813 16.5114 19.5895 16.6979 19.5895C17.5375 19.5895 17.4442 23.041 16.8845 23.9739ZM16.7912 28.3582C17.6308 29.944 18.8435 31.25 19.9629 32.1828C17.7241 32.5559 15.8584 33.4888 14.086 34.1418C15.1121 32.3694 16.045 30.2239 16.7912 28.3582ZM8.02257 40.0186C8.48898 38.5261 10.6345 36.847 11.2875 36.194C9.23525 39.4589 8.02257 40.0186 8.02257 40.0186ZM23.1345 14.9253H35.8211V45.5224C35.8211 46.8283 34.795 47.7612 33.5823 47.7612H2.23899C0.933015 47.7612 0.000179291 46.8283 0.000179291 45.5224V2.23878C0.000179291 1.02609 0.933015 -2.76566e-05 2.23899 -2.76566e-05H20.8957V12.6865C20.8957 13.9925 21.8285 14.9253 23.1345 14.9253ZM22.3882 30.9701C20.5226 29.8507 19.2166 28.2649 18.377 25.9328C18.7502 24.2537 19.4032 21.6418 18.9367 19.9627C18.4703 17.2574 15.0188 17.5373 14.4591 19.3097C13.9927 21.0821 14.4591 23.5074 15.2054 26.4925C14.1793 29.1044 12.5935 32.5559 11.4741 34.5149C11.3808 34.5149 11.3808 34.5149 11.3808 34.5149C8.86212 35.8209 4.57107 38.7127 6.34346 40.8582C6.80988 41.5112 7.836 41.791 8.30242 41.791C9.98152 41.791 11.6606 40.1119 13.9927 36.1007C16.4181 35.2612 19.1233 34.235 21.3621 33.8619C23.4144 34.9813 25.8397 35.7276 27.3323 35.7276C30.1308 35.7276 30.3173 32.7425 29.1979 31.6231C27.892 30.4104 24.1606 30.7836 22.3882 30.9701ZM35.1681 9.79475C35.5412 10.2612 35.8211 10.8209 35.8211 11.3806V11.9403H23.8808V-2.76566e-05H24.4405C25.0002 -2.76566e-05 25.5599 0.279823 26.0263 0.652957L35.1681 9.79475ZM28.1718 33.6753C28.1718 33.6753 27.7054 34.3283 24.2539 32.8358C27.9853 32.5559 28.6382 33.3955 28.1718 33.6753Z" fill="#D4D4D4"/>
</svg>
